<svg xmlns="http://www.w3.org/2000/svg" viewBox="0 0 200 300" width="100%" height="100%">
  <rect x="50" y="40" width="100" height="170" rx="50" fill="#FFD700" />
  
  <path d="M50 150 v 30 a 50 50 0 0 0 100 0 v -30 z" fill="#2b5b84" />
  <rect x="70" y="120" width="60" height="40" fill="#2b5b84" />
  
  <path d="M45 105 L 75 125" stroke="#2b5b84" stroke-width="8" stroke-linecap="round" />
  <path d="M155 105 L 125 125" stroke="#2b5b84" stroke-width="8" stroke-linecap="round" />
  <circle cx="72" cy="125" r="4" fill="#111" />
  <circle cx="128" cy="125" r="4" fill="#111" />
  
  <path d="M45 140 Q 25 170 35 190" stroke="#FFD700" stroke-width="10" stroke-linecap="round" fill="none" />
  <circle cx="36" cy="192" r="8" fill="#333" />
  
  <path d="M155 140 Q 175 170 165 190" stroke="#FFD700" stroke-width="10" stroke-linecap="round" fill="none" />
  <circle cx="164" cy="192" r="8" fill="#333" />
  
  <rect x="75" y="210" width="14" height="25" fill="#2b5b84" />
  <rect x="111" y="210" width="14" height="25" fill="#2b5b84" />
  <ellipse cx="82" cy="235" rx="16" ry="8" fill="#222" />
  <ellipse cx="118" cy="235" rx="16" ry="8" fill="#222" />
  
  <rect x="45" y="75" width="110" height="14" fill="#333" />
  
  <circle cx="78" cy="82" r="20" fill="#fff" stroke="#999" stroke-width="6" />
  <circle cx="122" cy="82" r="20" fill="#fff" stroke="#999" stroke-width="6" />
  
  <circle cx="82" cy="82" r="6" fill="#654321" />
  <circle cx="82" cy="82" r="2" fill="#000" />
  <circle cx="118" cy="82" r="6" fill="#654321" />
  <circle cx="118" cy="82" r="2" fill="#000" />
  
  <path d="M 85 110 Q 100 120 115 110" stroke="#333" stroke-width="2" fill="none" stroke-linecap="round" />
  
  <path d="M 95 42 Q 90 20 85 15" stroke="#111" stroke-width="2" fill="none" stroke-linecap="round" />
  <path d="M 100 40 Q 100 20 100 10" stroke="#111" stroke-width="2" fill="none" stroke-linecap="round" />
  <path d="M 105 42 Q 110 20 115 15" stroke="#111" stroke-width="2" fill="none" stroke-linecap="round" />
</svg>